<svg xmlns="http://www.w3.org/2000/svg" viewBox="0 0 160.41 197.23"><defs><style>.cls-1{fill:#db886f;}.cls-2,.cls-4,.cls-5,.cls-7{fill:none;stroke-miterlimit:10;}.cls-2{stroke:#96d4cc;}.cls-22,.cls-26,.cls-3,.cls-32,.cls-38{fill:#96d4cc;}.cls-4{stroke:#888144;}.cls-5{stroke:#86d0ca;}.cls-6{fill:#888144;}.cls-7{stroke:#db886f;}.cls-8{font-size:10px;}.cls-17,.cls-8{fill:#96d4cd;}.cls-17,.cls-22,.cls-26,.cls-32,.cls-38,.cls-8{font-family:BCNovaticaCYR-Regular, BC Novatica CYR;}.cls-27,.cls-8{letter-spacing:0em;}.cls-9{letter-spacing:0em;}.cls-10{letter-spacing:0em;}.cls-11{letter-spacing:-0.01em;}.cls-12{letter-spacing:0.01em;}.cls-13{letter-spacing:0.01em;}.cls-14{letter-spacing:0.01em;}.cls-15{letter-spacing:0em;}.cls-16{letter-spacing:0em;}.cls-17,.cls-26{font-size:17px;}.cls-18{letter-spacing:0.01em;}.cls-19{letter-spacing:0em;}.cls-20{letter-spacing:0em;}.cls-21{letter-spacing:0em;}.cls-22{font-size:13px;letter-spacing:0em;}.cls-23{letter-spacing:0em;}.cls-24{letter-spacing:0em;}.cls-25{letter-spacing:0em;}.cls-28{letter-spacing:-0.02em;}.cls-29{letter-spacing:-0.01em;}.cls-30{letter-spacing:0em;}.cls-31{letter-spacing:0em;}.cls-32{font-size:12px;}.cls-33{letter-spacing:0em;}.cls-34{letter-spacing:-0.01em;}.cls-35{letter-spacing:-0.01em;}.cls-36{letter-spacing:0em;}.cls-37{letter-spacing:0em;}.cls-38{font-size:7px;}.cls-39{letter-spacing:0.02em;}.cls-40{letter-spacing:0.02em;}.cls-41{letter-spacing:0.02em;}.cls-42{letter-spacing:0.02em;}.cls-43{letter-spacing:0.01em;}.cls-44{letter-spacing:0.01em;}.cls-45{letter-spacing:-0.01em;}.cls-46{letter-spacing:-0.02em;}</style></defs><g id="Layer_2" data-name="Layer 2"><g id="Layer_1-2" data-name="Layer 1"><polygon class="cls-1" points="24.03 97.64 30.5 97.64 30.5 114.43 65.99 114.43 65.99 97.64 72.91 97.64 72.91 114.43 107.59 114.43 107.59 134.32 140.34 134.32 140.34 139.77 107.59 139.77 107.59 191.6 153.22 191.81 153.22 139.77 146.8 139.77 146.8 134.32 153.22 134.32 153.22 87.43 72.91 87.43 72.91 92.41 65.99 92.41 65.99 87.43 30.5 87.43 30.5 92.41 24.03 92.41 24.03 87.11 7.2 87.11 7.2 120.13 7.2 147.13 40.3 147.13 40.3 152.58 7.2 152.58 7.2 191.49 52.61 191.49 52.61 179.56 61.64 179.56 61.64 191.49 98.55 191.49 98.55 120.13 61.64 120.13 61.64 174.11 52.61 174.11 52.61 152.58 46.76 152.58 46.76 147.13 52.61 147.13 52.61 120.13 24.03 120.13 24.03 97.64"/><polygon class="cls-2" points="24.03 97.64 30.5 97.64 30.5 114.43 65.99 114.43 65.99 97.64 72.91 97.64 72.91 114.43 107.59 114.43 107.59 134.32 140.34 134.32 140.34 139.77 107.59 139.77 107.59 191.6 153.22 191.81 153.22 139.77 146.8 139.77 146.8 134.32 153.22 134.32 153.22 87.43 72.91 87.43 72.91 92.41 65.99 92.41 65.99 87.43 30.5 87.43 30.5 92.41 24.03 92.41 24.03 87.11 7.2 87.11 7.2 120.13 7.2 147.13 40.3 147.13 40.3 152.58 7.2 152.58 7.2 191.49 52.61 191.49 52.61 179.56 61.64 179.56 61.64 191.49 98.55 191.49 98.55 120.13 61.64 120.13 61.64 174.11 52.61 174.11 52.61 152.58 46.76 152.58 46.76 147.13 52.61 147.13 52.61 120.13 24.03 120.13 24.03 97.64"/><rect class="cls-3" x="61.64" y="120.13" width="36.91" height="71.36"/><rect class="cls-2" x="61.64" y="120.13" width="36.91" height="71.36"/><polygon class="cls-3" points="16.28 74.62 144.13 74.62 80.2 10.29 16.28 74.62"/><polygon class="cls-4" points="16.28 74.62 144.13 74.62 80.2 10.29 16.28 74.62"/><line class="cls-4" x1="69.81" y1="20.76" x2="90.61" y2="20.76"/><line class="cls-4" x1="64.91" y1="25.68" x2="95.49" y2="25.68"/><line class="cls-4" x1="60.1" y1="30.6" x2="100.38" y2="30.6"/><line class="cls-4" x1="55.23" y1="35.52" x2="105.27" y2="35.52"/><line class="cls-4" x1="50.5" y1="40.44" x2="110.16" y2="40.44"/><line class="cls-4" x1="45.27" y1="45.36" x2="115.05" y2="45.36"/><line class="cls-4" x1="40.47" y1="50.28" x2="119.92" y2="50.28"/><line class="cls-4" x1="35.5" y1="55.2" x2="124.83" y2="55.2"/><line class="cls-4" x1="30.69" y1="60.12" x2="129.72" y2="60.12"/><line class="cls-4" x1="25.8" y1="65.04" x2="134.61" y2="65.04"/><line class="cls-4" x1="20.91" y1="69.96" x2="139.5" y2="69.96"/><line class="cls-5" x1="0.5" y1="81.02" x2="159.91" y2="81.02"/><rect class="cls-6" x="63.59" y="33.77" width="16.62" height="32.32"/><rect class="cls-2" x="63.59" y="33.77" width="16.62" height="32.32"/><rect class="cls-6" x="65.71" y="36.29" width="12.38" height="27.15"/><rect class="cls-2" x="65.71" y="36.29" width="12.38" height="27.15"/><rect class="cls-6" x="80.21" y="33.77" width="16.62" height="32.32"/><rect class="cls-2" x="80.21" y="33.77" width="16.62" height="32.32"/><path class="cls-6" d="M65.71,49.86h0Z"/><line class="cls-2" x1="65.71" y1="49.86" x2="78.08" y2="49.86"/><path class="cls-6" d="M65.71,43.08h0Z"/><line class="cls-2" x1="65.71" y1="43.08" x2="78.08" y2="43.08"/><path class="cls-6" d="M71.9,49.86v0Z"/><line class="cls-2" x1="71.9" y1="49.86" x2="71.9" y2="36.29"/><rect class="cls-6" x="82.33" y="36.29" width="12.38" height="27.15"/><rect class="cls-2" x="82.33" y="36.29" width="12.38" height="27.15"/><path class="cls-6" d="M82.33,49.86h0Z"/><line class="cls-2" x1="82.33" y1="49.86" x2="94.7" y2="49.86"/><path class="cls-6" d="M82.33,43.08h0Z"/><line class="cls-2" x1="82.33" y1="43.08" x2="94.7" y2="43.08"/><path class="cls-6" d="M88.51,49.86v0Z"/><line class="cls-2" x1="88.51" y1="49.86" x2="88.51" y2="36.29"/><rect class="cls-7" x="65" y="124.77" width="13.8" height="10.65"/><rect class="cls-7" x="81.6" y="124.77" width="13.8" height="10.65"/><rect class="cls-7" x="65" y="138.82" width="13.8" height="22.56"/><rect class="cls-7" x="81.6" y="138.82" width="13.8" height="22.56"/><rect class="cls-7" x="65" y="165.88" width="13.8" height="22.56"/><rect class="cls-7" x="81.6" y="165.88" width="13.8" height="22.56"/><polygon class="cls-5" points="80.2 0.71 0.5 80.92 0.5 196.73 159.91 196.73 159.91 80.92 80.2 0.71"/><text class="cls-8" transform="translate(7.2 160.02)">f<tspan class="cls-9" x="3.54" y="0">o</tspan><tspan class="cls-10" x="9.57" y="0">s</tspan><tspan class="cls-11" x="14.73" y="0">t</tspan><tspan class="cls-12" x="18.57" y="0">e</tspan><tspan class="cls-13" x="24.34" y="0">r</tspan><tspan class="cls-14" x="27.95" y="0">i</tspan><tspan class="cls-15" x="29.88" y="0">n</tspan><tspan class="cls-16" x="35.91" y="0">g</tspan></text><text class="cls-17" transform="translate(107.48 151.99)">w</text><text class="cls-17" transform="translate(120.71 151.99)">el<tspan class="cls-18" x="12.9" y="0">l</tspan><tspan x="16.2" y="0">-</tspan></text><text class="cls-17" transform="translate(107.14 167.99)"><tspan class="cls-19">b</tspan><tspan class="cls-20" x="10.35" y="0">e</tspan><tspan class="cls-21" x="19.97" y="0">i</tspan><tspan class="cls-20" x="23.12" y="0">n</tspan><tspan x="33.23" y="0">g</tspan></text><text class="cls-22" transform="translate(72.78 104.44)">s<tspan class="cls-23" x="6.64" y="0">oc</tspan><tspan class="cls-24" x="21.53" y="0">i</tspan><tspan class="cls-25" x="23.96" y="0">a</tspan><tspan class="cls-23" x="31.91" y="0">l</tspan></text><text class="cls-26" transform="translate(72.5 114.7)"><tspan class="cls-20">e</tspan><tspan class="cls-27" x="9.62" y="0">m</tspan><tspan class="cls-28" x="24.79" y="0">o</tspan><tspan class="cls-29" x="34.66" y="0">t</tspan><tspan class="cls-30" x="41.26" y="0">i</tspan><tspan class="cls-21" x="44.39" y="0">o</tspan><tspan class="cls-31" x="54.54" y="0">n</tspan><tspan class="cls-25" x="64.7" y="0">a</tspan><tspan x="75.1" y="0">l</tspan></text><text class="cls-32" transform="translate(16.12 147.41) rotate(-90)"><tspan class="cls-33">p</tspan><tspan class="cls-34" x="7.33" y="0">r</tspan><tspan class="cls-35" x="11.47" y="0">e</tspan><tspan class="cls-36" x="18.23" y="0">s</tspan><tspan class="cls-37" x="24.37" y="0">c</tspan><tspan x="30.92" y="0">ho</tspan><tspan class="cls-25" x="45.32" y="0">o</tspan><tspan x="52.55" y="0">l</tspan></text><text class="cls-38" transform="translate(32.35 101.65)"><tspan class="cls-39">c</tspan><tspan class="cls-40" x="3.96" y="0">h</tspan><tspan class="cls-41" x="8.3" y="0">il</tspan><tspan class="cls-42" x="11.24" y="0">d</tspan><tspan class="cls-43" x="15.67" y="0">r</tspan><tspan class="cls-44" x="18.22" y="0">e</tspan><tspan class="cls-45" x="22.32" y="0">n</tspan><tspan class="cls-46" x="26.49" y="0">’</tspan><tspan x="27.58" y="0">s</tspan></text></g></g></svg>